<mxfile host="app.diagrams.net" modified="2023-10-11T11:08:02.948Z" agent="Mozilla/5.0 (Windows NT 10.0; Win64; x64) AppleWebKit/537.36 (KHTML, like Gecko) Chrome/117.0.0.0 Safari/537.36" etag="uAy-zja0anHNevOAAtpK" version="22.0.4" type="github">
  <diagram name="Page-1" id="ljEujbJLQUYPLpvqMLAu">
    <mxGraphModel dx="954" dy="630" grid="1" gridSize="10" guides="1" tooltips="1" connect="1" arrows="1" fold="1" page="1" pageScale="1" pageWidth="850" pageHeight="1100" math="0" shadow="0">
      <root>
        <mxCell id="0" />
        <mxCell id="1" parent="0" />
        <mxCell id="FO-2_hBBCfqvoGGvr1Tq-22" style="edgeStyle=orthogonalEdgeStyle;rounded=0;orthogonalLoop=1;jettySize=auto;html=1;" edge="1" parent="1" source="FO-2_hBBCfqvoGGvr1Tq-1" target="FO-2_hBBCfqvoGGvr1Tq-3">
          <mxGeometry relative="1" as="geometry" />
        </mxCell>
        <mxCell id="FO-2_hBBCfqvoGGvr1Tq-1" value="acquisition" style="rounded=1;whiteSpace=wrap;html=1;fillColor=#dae8fc;strokeColor=#6c8ebf;" vertex="1" parent="1">
          <mxGeometry x="140" y="120" width="100" height="30" as="geometry" />
        </mxCell>
        <mxCell id="FO-2_hBBCfqvoGGvr1Tq-13" style="edgeStyle=orthogonalEdgeStyle;rounded=0;orthogonalLoop=1;jettySize=auto;html=1;entryX=0;entryY=0.5;entryDx=0;entryDy=0;" edge="1" parent="1" source="FO-2_hBBCfqvoGGvr1Tq-2" target="FO-2_hBBCfqvoGGvr1Tq-11">
          <mxGeometry relative="1" as="geometry" />
        </mxCell>
        <mxCell id="FO-2_hBBCfqvoGGvr1Tq-2" value="representation" style="rounded=1;whiteSpace=wrap;html=1;fillColor=#dae8fc;strokeColor=#6c8ebf;" vertex="1" parent="1">
          <mxGeometry x="140" y="240" width="100" height="30" as="geometry" />
        </mxCell>
        <mxCell id="FO-2_hBBCfqvoGGvr1Tq-5" style="edgeStyle=orthogonalEdgeStyle;rounded=0;orthogonalLoop=1;jettySize=auto;html=1;entryX=0.5;entryY=0;entryDx=0;entryDy=0;" edge="1" parent="1" source="FO-2_hBBCfqvoGGvr1Tq-3" target="FO-2_hBBCfqvoGGvr1Tq-2">
          <mxGeometry relative="1" as="geometry" />
        </mxCell>
        <mxCell id="FO-2_hBBCfqvoGGvr1Tq-3" value="file organization" style="rounded=1;whiteSpace=wrap;html=1;fillColor=#dae8fc;strokeColor=#6c8ebf;" vertex="1" parent="1">
          <mxGeometry x="140" y="180" width="100" height="30" as="geometry" />
        </mxCell>
        <mxCell id="FO-2_hBBCfqvoGGvr1Tq-21" style="edgeStyle=orthogonalEdgeStyle;rounded=0;orthogonalLoop=1;jettySize=auto;html=1;" edge="1" parent="1" source="FO-2_hBBCfqvoGGvr1Tq-7" target="FO-2_hBBCfqvoGGvr1Tq-10">
          <mxGeometry relative="1" as="geometry" />
        </mxCell>
        <mxCell id="FO-2_hBBCfqvoGGvr1Tq-7" value="user" style="rounded=1;whiteSpace=wrap;html=1;fillColor=#d5e8d4;strokeColor=#82b366;" vertex="1" parent="1">
          <mxGeometry x="325" y="120" width="100" height="30" as="geometry" />
        </mxCell>
        <mxCell id="FO-2_hBBCfqvoGGvr1Tq-15" style="edgeStyle=orthogonalEdgeStyle;rounded=0;orthogonalLoop=1;jettySize=auto;html=1;entryX=0.5;entryY=0;entryDx=0;entryDy=0;" edge="1" parent="1" source="FO-2_hBBCfqvoGGvr1Tq-8" target="FO-2_hBBCfqvoGGvr1Tq-11">
          <mxGeometry relative="1" as="geometry">
            <Array as="points">
              <mxPoint x="280" y="260" />
            </Array>
          </mxGeometry>
        </mxCell>
        <mxCell id="FO-2_hBBCfqvoGGvr1Tq-8" value="representation" style="rounded=1;whiteSpace=wrap;html=1;fillColor=#d5e8d4;strokeColor=#82b366;" vertex="1" parent="1">
          <mxGeometry x="325" y="240" width="100" height="30" as="geometry" />
        </mxCell>
        <mxCell id="FO-2_hBBCfqvoGGvr1Tq-9" style="edgeStyle=orthogonalEdgeStyle;rounded=0;orthogonalLoop=1;jettySize=auto;html=1;entryX=0.5;entryY=0;entryDx=0;entryDy=0;" edge="1" parent="1" source="FO-2_hBBCfqvoGGvr1Tq-10" target="FO-2_hBBCfqvoGGvr1Tq-8">
          <mxGeometry relative="1" as="geometry" />
        </mxCell>
        <mxCell id="FO-2_hBBCfqvoGGvr1Tq-10" value="query" style="rounded=1;whiteSpace=wrap;html=1;fillColor=#d5e8d4;strokeColor=#82b366;" vertex="1" parent="1">
          <mxGeometry x="325" y="180" width="100" height="30" as="geometry" />
        </mxCell>
        <mxCell id="FO-2_hBBCfqvoGGvr1Tq-16" style="edgeStyle=orthogonalEdgeStyle;rounded=0;orthogonalLoop=1;jettySize=auto;html=1;entryX=0;entryY=0.5;entryDx=0;entryDy=0;" edge="1" parent="1" source="FO-2_hBBCfqvoGGvr1Tq-11" target="FO-2_hBBCfqvoGGvr1Tq-14">
          <mxGeometry relative="1" as="geometry" />
        </mxCell>
        <mxCell id="FO-2_hBBCfqvoGGvr1Tq-11" value="matching" style="rounded=1;whiteSpace=wrap;html=1;fillColor=#f5f5f5;fontColor=#333333;strokeColor=#666666;" vertex="1" parent="1">
          <mxGeometry x="230" y="300" width="100" height="30" as="geometry" />
        </mxCell>
        <mxCell id="FO-2_hBBCfqvoGGvr1Tq-19" style="edgeStyle=orthogonalEdgeStyle;rounded=0;orthogonalLoop=1;jettySize=auto;html=1;entryX=1;entryY=0.5;entryDx=0;entryDy=0;exitX=1;exitY=0.5;exitDx=0;exitDy=0;" edge="1" parent="1" source="FO-2_hBBCfqvoGGvr1Tq-14" target="FO-2_hBBCfqvoGGvr1Tq-7">
          <mxGeometry relative="1" as="geometry" />
        </mxCell>
        <mxCell id="FO-2_hBBCfqvoGGvr1Tq-14" value="results" style="rounded=1;whiteSpace=wrap;html=1;rotation=-90;fillColor=#dae8fc;strokeColor=#6c8ebf;" vertex="1" parent="1">
          <mxGeometry x="410" y="230" width="100" height="30" as="geometry" />
        </mxCell>
      </root>
    </mxGraphModel>
  </diagram>
</mxfile>
